#!OML:ASF I:\Random Stuff\random\construction\7_22_03\Session 2\subj1.ASF
:FULLY-SPECIFIED
:DEGREES
412
root -6.31406 17.9972 3.47902 33.7144 51.6199 17.6219
lowerback 19.6738 -1.23977 10.89
upperback 7.74085 1.14265 7.22263
thorax -2.52095 0.80944 1.35606
lowerneck -20.817 -7.21514 -4.72365
upperneck 22.9791 -11.1546 10.1236
head 11.8856 -4.07029 2.69572
rclavicle 0 4.13472e-014
rhumerus 8.82743 12.5827 -59.5854
rradius 43.5505
rwrist 14.9703
rhand -47.474 64.5561
rfingers 7.12502
rthumb -20.1629 35.5824
lclavicle 0 4.13472e-014
lhumerus -28.1421 -42.487 93.9018
lradius 69.7156
lwrist 47.9351
lhand -17.7159 63.2677
lfingers 7.12502
lthumb -171.455 86.9252
rfemur -35.346 2.26697 10.8064
rtibia 27.4828
rfoot -10.1116 -11.4893
rtoes -2.02007
lfemur -25.1839 -2.06125 -23.4585
ltibia 18.2038
lfoot -0.71804 4.71563
ltoes -34.184
413
root -6.3364 18.0001 3.47655 34.3517 51.8189 18.1108
lowerback 19.8211 -1.25082 10.9635
upperback 7.84436 1.16055 7.19997
thorax -2.47991 0.826321 1.28846
lowerneck -20.8784 -7.30643 -4.77364
upperneck 22.717 -11.3178 10.413
head 11.8378 -4.11883 2.7771
rclavicle 8.26944e-014 -7.63333e-014
rhumerus 9.81935 13.1295 -58.972
rradius 43.3533
rwrist 15.541
rhand -46.8509 64.0449
rfingers 7.12502
rthumb -19.5639 35.0092
lclavicle 8.26944e-014 -7.63333e-014
lhumerus -28.0841 -41.906 94.2528
lradius 68.6604
lwrist 46.9904
lhand -17.7795 62.9001
lfingers 7.12502
lthumb -171.517 87.2902
rfemur -35.6834 2.05529 10.5867
rtibia 27.6519
rfoot -10.1526 -11.4839
rtoes -1.30766
lfemur -25.4709 -2.19645 -23.677
ltibia 18.0331
lfoot -0.435403 4.78807
ltoes -33.9088
414
root -6.35755 18.0017 3.47708 34.839 52.0289 18.4753
lowerback 20.0152 -1.2378 11.0492
upperback 7.94916 1.22276 7.21679
thorax -2.45932 0.864265 1.24753
lowerneck -21.0694 -7.39273 -4.74663
upperneck 22.6379 -11.4616 10.5065
head 11.8641 -4.1645 2.77579
rclavicle -2.22639e-014 7.95139e-014
rhumerus 10.7195 13.5058 -58.3698
rradius 43.3083
rwrist 16.1174
rhand -46.2086 63.2207
rfingers 7.12502
rthumb -18.9463 34.1234
lclavicle -2.22639e-014 7.95139e-014
lhumerus -27.9195 -41.5142 94.5016
lradius 67.731
lwrist 46.3156
lhand -17.3651 62.5603
lfingers 7.12502
lthumb -171.117 87.6467
rfemur -35.9342 1.86726 10.4775
rtibia 27.768
rfoot -10.1605 -11.5463
rtoes -1.1587
lfemur -25.7305 -2.28126 -23.8026
ltibia 17.9241
lfoot -0.234274 4.78439
ltoes -33.6586
415
root -6.37896 18.0028 3.48033 35.1371 52.3245 18.669
lowerback 20.2599 -1.23885 11.2451
upperback 8.03296 1.30147 7.25914
thorax -2.48276 0.91003 1.17028
lowerneck -21.2376 -7.488 -4.72206
upperneck 22.5999 -11.614 10.5728
head 11.9005 -4.21641 2.76417
rclavicle 1.90833e-014 0
rhumerus 11.5015 13.6846 -57.8886
rradius 43.4431
rwrist 16.5314
rhand -45.3112 61.2026
rfingers 7.12502
rthumb -18.0831 32.0232
lclavicle 1.90833e-014 0
lhumerus -27.6664 -41.3281 94.6068
lradius 66.9501
lwrist 46.0818
lhand -17.004 62.6003
lfingers 7.12502
lthumb -170.769 87.6218
rfemur -36.0893 1.76526 10.5087
rtibia 27.8389
rfoot -10.1367 -11.7591
rtoes -1.20449
lfemur -25.9696 -2.2509 -23.784
ltibia 17.8569
lfoot 0.0327548 4.51125
ltoes -33.6594
416
root -6.40066 18.0058 3.48492 35.4814 52.6707 18.9165
lowerback 20.4171 -1.25873 11.422
upperback 8.10407 1.34066 7.31195
thorax -2.47784 0.936992 1.12314
lowerneck -21.2832 -7.57967 -4.7014
upperneck 22.4639 -11.742 10.605
head 11.8702 -4.27123 2.74629
rclavicle 7.95139e-014 7.31528e-014
rhumerus 12.1913 13.8315 -57.4872
rradius 43.7794
rwrist 16.8398
rhand -44.8466 58.406
rfingers 7.12502
rthumb -17.6361 29.1858
lclavicle 7.95139e-014 7.31528e-014
lhumerus -27.4288 -41.0916 94.6825
lradius 66.3774
lwrist 45.9973
lhand -16.9345 62.5458
lfingers 7.12502
lthumb -170.701 87.6792
rfemur -36.2036 1.65456 10.5247
rtibia 27.8644
rfoot -10.0933 -12.007
rtoes -1.12302
lfemur -26.2496 -2.28655 -23.7311
ltibia 17.8403
lfoot 0.327595 4.13459
ltoes -33.3687
417
root -6.4194 18.0079 3.49162 35.9257 52.9636 19.2483
lowerback 20.4847 -1.26469 11.4723
upperback 8.15633 1.35961 7.37363
thorax -2.45381 0.951487 1.1591
lowerneck -21.1472 -7.64278 -4.78046
upperneck 22.1599 -11.7997 10.7024
head 11.7455 -4.31005 2.78387
rclavicle 2.8625e-014 -6.36111e-015
rhumerus 12.8159 14.0987 -57.0765
rradius 44.2161
rwrist 17.1256
rhand -44.7984 55.4044
rfingers 7.12502
rthumb -17.5896 26.1801
lclavicle 2.8625e-014 -6.36111e-015
lhumerus -27.2792 -40.8616 94.8031
lradius 65.966
lwrist 45.9327
lhand -16.9219 62.448
lfingers 7.12502
lthumb -170.689 87.7776
rfemur -36.3344 1.47094 10.4934
rtibia 27.8526
rfoot -10.0131 -12.1921
rtoes -1.19345
lfemur -26.5355 -2.4084 -23.7231
ltibia 17.8398
lfoot 0.587939 3.80001
ltoes -33.3009
418
root -6.43642 18.0096 3.49988 36.348 53.2296 19.5537
lowerback 20.5555 -1.2679 11.4848
upperback 8.1948 1.37687 7.44131
thorax -2.44844 0.963066 1.22251
lowerneck -21.169 -7.69784 -4.93462
upperneck 22.0126 -11.8478 10.8403
head 11.7192 -4.33322 2.84859
rclavicle 9.54166e-015 -5.08889e-014
rhumerus 13.6133 14.0912 -56.9126
rradius 44.3548
rwrist 17.5068
rhand -44.221 52.5203
rfingers 7.12502
rthumb -17.0339 23.2471
lclavicle 9.54166e-015 -5.08889e-014
lhumerus -27.2216 -40.5472 94.9629
lradius 65.7231
lwrist 45.7582
lhand -16.9315 62.2751
lfingers 7.12502
lthumb -170.699 87.9501
rfemur -36.4667 1.29646 10.4703
rtibia 27.8343
rfoot -9.935 -12.3697
rtoes -1.19538
lfemur -26.7748 -2.4957 -23.7144
ltibia 17.8061
lfoot 0.839347 3.43148
ltoes -33.4678
419
root -6.45202 18.0135 3.50912 36.7338 53.5252 19.7861
lowerback 20.5746 -1.27403 11.5843
upperback 8.22067 1.39739 7.49252
thorax -2.4261 0.977893 1.21967
lowerneck -21.3031 -7.77354 -5.06668
upperneck 21.9492 -11.9423 10.9891
head 11.7509 -4.36556 2.9037
rclavicle 2.54444e-014 -5.40694e-014
rhumerus 14.5537 13.8716 -56.947
rradius 44.1055
rwrist 17.8776
rhand -43.6006 50.3022
rfingers 7.12502
rthumb -16.4367 20.9786
lclavicle 2.54444e-014 -5.40694e-014
lhumerus -27.186 -40.1778 95.0528
lradius 65.67
lwrist 45.5881
lhand -16.9256 62.1145
lfingers 7.12502
lthumb -170.693 88.1109
rfemur -36.6169 1.14758 10.49
rtibia 27.8354
rfoot -9.91765 -12.5239
rtoes -0.761113
lfemur -27.0361 -2.58178 -23.6289
ltibia 17.7463
lfoot 1.08572 3.0979
ltoes -33.4587
420
root -6.46357 18.0166 3.52179 37.0461 53.8162 19.9838
lowerback 20.6053 -1.30063 11.697
upperback 8.22492 1.39733 7.53045
thorax -2.4338 0.981069 1.19963
lowerneck -21.1034 -7.81904 -5.30642
upperneck 21.6134 -11.9781 11.3001
head 11.6295 -4.38545 3.05136
rclavicle -6.67916e-014 9.54166e-015
rhumerus 15.3149 14.2927 -56.666
rradius 43.9228
rwrist 17.8972
rhand -43.937 48.9343
rfingers 7.12502
rthumb -16.7605 19.6377
lclavicle -6.67916e-014 9.54166e-015
lhumerus -27.2293 -39.773 95.1229
lradius 65.7181
lwrist 45.3999
lhand -16.6984 62.0128
lfingers 7.12502
lthumb -170.474 88.2226
rfemur -36.701 1.012 10.537
rtibia 27.8519
rfoot -9.93498 -12.6512
rtoes -0.0483414
lfemur -27.2321 -2.71989 -23.4988
ltibia 17.6896
lfoot 1.25603 2.94023
ltoes -33.1399
421
root -6.47434 18.0165 3.53541 37.2845 54.0989 20.1764
lowerback 20.7307 -1.33783 11.7564
upperback 8.19476 1.39709 7.60108
thorax -2.53105 0.978465 1.24415
lowerneck -20.9269 -7.85941 -5.5611
upperneck 21.4152 -11.9813 11.4775
head 11.5517 -4.40191 3.15908
rclavicle 2.8625e-014 9.85972e-014
rhumerus 16.044 15.3846 -56.0541
rradius 43.8274
rwrist 17.8442
rhand -45.2991 47.84
rfingers 7.12502
rthumb -18.0714 18.6596
lclavicle 2.8625e-014 9.85972e-014
lhumerus -27.3779 -39.2955 95.2925
lradius 65.8615
lwrist 45.281
lhand -16.5434 61.6909
lfingers 7.12502
lthumb -170.324 88.5513
rfemur -36.7201 0.807613 10.63
rtibia 27.8759
rfoot -9.95491 -12.7408
rtoes 0.455875
lfemur -27.3341 -2.86584 -23.375
ltibia 17.6427
lfoot 1.33982 2.84658
ltoes -33.0613
422
root -6.48511 18.0152 3.5473 37.4575 54.3451 20.3075
lowerback 20.838 -1.30069 11.8772
upperback 8.13991 1.50054 7.6654
thorax -2.63742 1.02522 1.22469
lowerneck -20.8679 -7.95757 -5.68113
upperneck 21.3821 -12.0704 11.452
head 11.5421 -4.45804 3.15394
rclavicle -7.95139e-014 -9.85972e-014
rhumerus 16.594 16.1745 -55.4178
rradius 43.947
rwrist 17.181
rhand -44.6577 46.3666
rfingers 7.12502
rthumb -17.4542 17.1302
lclavicle -7.95139e-014 -9.85972e-014
lhumerus -27.6195 -39.0665 95.5763
lradius 66.106
lwrist 45.2637
lhand -16.6789 61.2381
lfingers 7.12502
lthumb -170.455 88.9981
rfemur -36.7578 0.498466 10.7999
rtibia 27.9118
rfoot -9.97191 -12.6977
rtoes 0.180988
lfemur -27.4181 -2.98816 -23.2507
ltibia 17.6026
lfoot 1.36707 2.72284
ltoes -33.7106
423
root -6.49432 18.0141 3.5597 37.5603 54.5451 20.372
lowerback 20.8967 -1.20616 12.0643
upperback 8.09067 1.6761 7.69319
thorax -2.7038 1.10912 1.1128
lowerneck -20.7913 -8.08466 -5.69739
upperneck 21.3277 -12.2173 11.3765
head 11.5161 -4.53858 3.10313
rclavicle 6.36111e-015 6.36111e-015
rhumerus 16.691 16.8828 -54.7342
rradius 44.4111
rwrist 16.597
rhand -43.9936 45.0541
rfingers 7.12502
rthumb -16.815 15.7622
lclavicle 6.36111e-015 6.36111e-015
lhumerus -27.9107 -39.1187 95.8711
lradius 66.405
lwrist 45.1505
lhand -16.5986 60.788
lfingers 7.12502
lthumb -170.377 89.4518
rfemur -36.7921 0.240618 10.9816
rtibia 27.96
rfoot -9.97823 -12.6685
rtoes -0.478227
lfemur -27.4847 -3.05055 -23.1313
ltibia 17.5688
lfoot 1.41761 2.56773
ltoes -34.2165
424
root -6.50362 18.013 3.57295 37.6886 54.7532 20.4458
lowerback 20.9288 -1.17929 12.1676
upperback 8.12497 1.73625 7.7007
thorax -2.67417 1.14341 1.05149
lowerneck -20.9906 -8.14683 -5.65203
upperneck 21.3419 -12.3025 11.3239
head 11.561 -4.57114 3.05571
rclavicle 3.81667e-014 -1.90833e-014
rhumerus 17.0699 17.4514 -54.2914
rradius 44.8153
rwrist 16.3379
rhand -43.4425 44.1301
rfingers 7.12502
rthumb -16.2844 14.7939
lclavicle 3.81667e-014 -1.90833e-014
lhumerus -27.8944 -38.9903 95.8096
lradius 66.7175
lwrist 45.1341
lhand -16.1623 60.437
lfingers 7.12502
lthumb -169.956 89.8227
rfemur -36.8366 0.0734705 11.1244
rtibia 28.0066
rfoot -9.94015 -12.7447
rtoes -0.999233
lfemur -27.5694 -3.2075 -22.9826
ltibia 17.5339
lfoot 1.52496 2.54396
ltoes -34.0022
